<?xml version="1.0" encoding="UTF-8" standalone="yes"?>
<svg version="1.1" id="Layer_1" xmlns:x="&amp;ns_extend;" xmlns:i="&amp;ns_ai;" xmlns:graph="&amp;ns_graphs;" xmlns="http://www.w3.org/2000/svg" xmlns:xlink="http://www.w3.org/1999/xlink" x="0px" y="0px" viewBox="0 0 298.903 315" style="enable-background:new 0 0 298.903 315;" xml:space="preserve">
      <style type="text/css">.st0{fill:#34A2F4;}	.st1{fill:#197BDD;}	.st2{fill:#0959CC;}	.st3{fill:#0041A8;}	.st4{fill:#03267F;}</style>
    <metadata>
              <sfw>
                      <slices/>
            <sliceSourceBounds bottomLeftOrigin="true" height="315" width="298.903" x="457.303" y="-559.683"/>
                  </sfw>
          </metadata>
    <g id="color_index_4" fill="rgba(204, 255, 242, 1)">
              <path d="M193.137,262.409c6.396-1.298,12.622-3.054,18.648-5.237l-37.416-64.803L193.137,262.409z M189.002,183.922&#x9;&#x9;l38.369,66.454c6.075-3.136,11.866-6.737,17.348-10.739L189.002,183.922z M158.051,196.749v68.396h12.226v-0.093&#x9;&#x9;c2.01-0.055,4.005-0.168,5.992-0.311L158.051,196.749z M141.152,196.743l-18.328,68.402h18.328V196.743z"/>
          </g>
    <g id="color_index_3" fill="rgba(82, 255, 226, 1)">
              <path d="M281.393,66.237l-71.989,41.566l81.349-21.798C288.169,79.124,285.034,72.518,281.393,66.237z&#x9;&#x9; M213.775,141.021l81.887,21.94c1.669-7.111,2.768-14.438,3.241-21.94H213.775z M213.78,124.123h85.123&#x9;&#x9;c-0.473-7.501-1.572-14.828-3.241-21.939L213.78,124.123z M281.393,198.908c3.641-6.281,6.776-12.888,9.36-19.768l-81.349-21.798&#x9;&#x9;L281.393,198.908z M200.952,171.976l56.817,56.817c5.15-4.876,9.892-10.169,14.208-15.81L200.952,171.976z"/>
          </g>
    <g id="color_index_2" fill="rgba(46, 228, 237, 1)">
              <path d="M158.051,0v68.395l18.218-67.991c-1.987-0.143-3.982-0.257-5.992-0.311V0H158.051z M193.137,2.736&#x9;&#x9;l-18.768,70.038l37.414-64.801C205.758,5.79,199.533,4.034,193.137,2.736z M227.371,14.769l-38.369,66.455l55.717-55.715&#x9;&#x9;C239.236,21.506,233.446,17.905,227.371,14.769z M200.952,93.169l71.024-41.006c-4.315-5.641-9.058-10.935-14.208-15.81&#x9;&#x9;L200.952,93.169z M122.824,0l18.328,68.402V0H122.824z"/>
          </g>
    <g id="color_index_1" fill="rgba(33, 168, 244, 1)">
              <path d="M110.198,81.224L63.304,0H28.977L110.198,81.224z M105.333,0H82.814l42.018,72.775L105.333,0z M98.247,93.167&#x9;&#x9;L5.082,0H0.001v36.445L98.247,93.167z M0.001,55.957v27.784l89.798,24.061L0.001,55.957z M85.423,124.123L0.001,101.235v22.887&#x9;&#x9;H85.423z"/>
          </g>
    <g id="color_index_0" fill="rgba(25, 42, 191, 1)">
              <path d="M124.84,192.37L91.978,315h-37.93L124.84,192.37z M0,294.126V315h34.537l75.659-131.069L0,294.126z&#x9;&#x9; M98.247,171.978L0.001,228.7v41.525L98.247,171.978z M89.799,157.343L0.001,181.404v27.784L89.799,157.343z M85.425,141.021H0.001&#x9;&#x9;v22.889L85.425,141.021z"/>
          </g>
  </svg>